<svg width="364.69mm" height="413.896" viewBox="0 0 364.69 109.51" xmlns="http://www.w3.org/2000/svg">
  <path d="M57.692 10.013c-2.512 2.082-4.776 4.345-6.916 7.232-3.603 4.6-2.43 4.442-5.252 10.426-.423 2.89-.202 2.94-.296 5.094.803 3.934-.094 7.884-.189 8.901l-.31 3.597s-.916 5.686-.916 5.968c0 .281-.545 4.712-.545 4.712-.588 4.599-.873 4.808-3.603 7.797l-3.974 4.12c-3.66 4.777-5.854 6.351-9.977 9.436-2.259 2.827-3.309 4.532-5.321 8.1-2.526 3.713-2.628 4.06-6.464 8.259l-2.187 2.47c-1.964 2.447-3.95 4.877-5.931 7.31l-2.604 2.963-3.209 3.111h81.626l4.017-6.055c3.413-7.035 3.184-6.658 3.279-13.573.053-3.8.08-3.777-.719-8.302-.671-5.836-.715-5.773-.776-14.266-1.013-4.115-1.057-4.08-1.593-7.645-.176-3.726-.137-3.7 2.924-6.97l4.856-3.843c3.039-2.07 3.507-2.278 7.655-2.592 3.02.225 5.135.005 8.735-.467 2.385-1.06 2.508-1.064 5.272-1.739.989-.534 2.512-1.719 2.542-1.911-.084-.18-14.821-6.954-22.233-10.43l24.556-15.73c.886-2.328 1.45-3.996 1.132-6.243l-.847-2.372-.329-1.777.079-2.251-.656-2.016-1.034-1.15-.81-.177-11.85 1.987-3.018.827-7.073 1.642c-5.976 1.478-5.85 1.573-11.947-.549-6.055-1.627-5.883-1.662-11.472-.797-5.315 1.566-7.533 2.367-12.023 4.864a65.54 65.54 0 00-2.598 2.039z"/>
  <path d="M86.593 93.114c-10.989 7.266-6.823 6.192-12.961 15.345l6.941-.007c1.054-1.519 2.756-3.694 3.984-5.993 2.197-4.112 4.132-7.971 2.036-9.346z" fill="#fff"/>
  <g transform="translate(-28.747 -76.543)">
    <rect transform="matrix(.844 -.53635 .46162 .88708 0 0)" x="87.118" y="164.03" width="20.461" height="1.213" ry="0"/>
    <rect transform="matrix(.99811 .0615 -.0504 .99873 0 0)" x="155.01" y="93.892" width="19.928" height="1.241" ry="0"/>
    <rect transform="matrix(.91101 .41239 -.34758 .93765 0 0)" x="178.43" y="37.509" width="20.235" height="1.225" ry="0"/>
  </g>
  <path d="M43.129 57.264l42.679-.013.418 4.865-44.633-.55z" fill="#bf7268"/>
  <g letter-spacing="0" word-spacing="0">
    <text transform="translate(-321.59 -238.18) scale(2.556)" font-family="ezcar" font-size="32.456" style="line-height:1.25;shape-inside:url(#rect100);white-space:pre">
      <tspan x="184.506" y="116.497"><tspan font-family="Eczar">VIIRU</tspan></tspan>
    </text>
    <text x="166.421" y="98.348" font-family="Eczar" font-size="33.642" stroke-width=".631" style="line-height:1.25">
      <tspan x="166.421" y="98.348">Digital</tspan>
    </text>
  </g>
</svg>
