<svg width="358.33mm" height="362.098" viewBox="0 0 358.33 95.805" xmlns="http://www.w3.org/2000/svg">
  <path d="M28.354 14.24c-3.573 2.962-6.793 6.182-9.838 10.289-5.125 6.544-3.456 6.318-7.472 14.83-.6 4.112-.287 4.183-.421 7.248 1.143 5.596-.134 11.215-.268 12.663l-.44 5.116s-1.304 8.089-1.304 8.49c0 .4-.775 6.702-.775 6.702C6.998 86.12 6.16 86.27 3.94 90.919l-3.943 4.877 70.654-.042c-1.441-5.854-1.503-5.805-2.266-10.877-.25-5.3-.195-5.264 4.16-9.915l6.908-5.467c4.322-2.946 4.988-3.241 10.89-3.687 4.296.32 7.304.007 12.425-.665 3.543-1.02 3.754-1.13 7.5-2.473 1.406-.76 3.02-2.31 3.16-2.614.173-.377-.505-.614-.505-.614-.606-.298-1.476-.714-2.549-1.223a915.082 915.082 0 00-3.77-1.772 2615.84 2615.84 0 00-4.625-2.157l-5.114-2.377-5.236-2.431c-1.725-.802-3.41-1.585-4.992-2.322-1.582-.737-3.556-1.728-3.738-2.126s3.724-2.717 3.724-2.717l30.565-19.58c.158-.413.308-.813.45-1.2s.275-.766.398-1.135c.122-.369.235-.73.335-1.087.1-.357.19-.71.265-1.061.075-.352.137-.703.184-1.056a12.043 12.043 0 00-.02-3.341l-1.205-3.376-.469-2.527.112-3.203-.933-2.867-1.47-1.636-1.152-.252-16.859 2.826L92.532 4 82.47 6.335c-8.502 2.102-8.321 2.237-16.995-.78-8.614-2.316-8.37-2.365-16.32-1.135-7.56 2.228-10.715 3.368-17.103 6.92a93.361 93.361 0 00-3.697 2.9z" fill="#212121" style="mix-blend-mode:soft-light"/>
  <path d="M7.635 81.448l60.713-.018.595 6.92-63.492-.782z" fill="#bf7268"/>
  <path d="M116.34 32.203L135.857 19.8" fill="none" stroke="#000" stroke-linecap="round" stroke-linejoin="round" stroke-width="1.5885114" paint-order="stroke fill markers"/>
  <path d="M116.345 40.148l22.417.009M116.345 48.092l19.41 11.216" fill="none" stroke="#000" stroke-linecap="round" stroke-linejoin="round" stroke-width="1.58888" paint-order="stroke fill markers"/>
  <g>
    <text x="173.723" y="89.353" font-family="Eczar" font-size="33.642" letter-spacing="0" stroke-width=".631" word-spacing="0" style="line-height:1.25" transform="translate(-7.942 -5)">
      <tspan x="173.723" y="89.353" fill="#474747">Digital</tspan>
    </text>
    <g transform="translate(-327.942 -240.53) scale(2.556)" style="shape-inside:url(#rect1156);white-space:pre" aria-label="VIIRU">
      <path d="M206.58 96.439l-2.531.941-6.946 19.181q-1.59.325-3.278.26l-6.75-19.603-2.565-.292.033-1.526h8.665l.195 1.039-2.954 1.071 4.512 13.242.422 3.83h.162l6.004-17.3-2.953-.356.032-1.526h7.757zM215.83 114.97l-.033 1.525H207.1l-.194-1.038 2.758-1.006V97.217l-2.499-.292.033-1.526h8.049l.195 1.039-2.76 1.006v17.169zM226.05 114.97l-.033 1.525h-8.698l-.194-1.038 2.758-1.006V97.217l-2.499-.292.033-1.526h8.049l.195 1.039-2.76 1.006v17.169zM246.59 114.97l-.033 1.525h-4.933l-4.64-8.438-3.863.032v6.491l3.473.39-.033 1.525h-9.022l-.195-1.038 2.759-1.006V97.087l-2.305-.13.033-1.558 9.055-.26q3.44 0 5.55 1.785 2.142 1.753 2.142 4.48 0 1.947-1.201 3.7-1.2 1.72-3.408 2.498l4.414 7.173zm-13.469-9.023q1.46.227 2.759.227 2.986 0 4.187-1.395 1.2-1.428 1.2-3.376 0-3.115-2.531-4.349l-5.615.487zM268.5 96.439l-2.759 1.006v10.191q-.227 9.445-7.821 9.445-4.22 0-6.621-2.597-2.37-2.629-2.37-7.172V97.218l-2.499-.293.033-1.525h8.049l.194 1.039-2.758 1.006v10.19q0 3.344 1.59 5.194 1.623 1.817 4.511 1.817 1.558 0 3.084-.649 2.207-1.558 2.207-6.361V97.25l-2.889-.325.033-1.525h7.821z"/>
    </g>
  </g>
  <path d="M44.04 6.365a3.174 3.174 0 00-.691.087c2.523.189 4.122 3.664 4.688 5.678.644 2.29-1.815 33.482-1.815 33.482-.874 3.329-1.2 6.636-5.148 10.985-3.949 4.348-1.494 3.596-6.01 3.643-2.353.025-4.967-2.025-7.127-4.35 2.31 2.63 5.263 5.132 7.894 5.105 4.606-.048 2.103.715 6.13-3.7 4.027-4.416 4.36-7.774 5.25-11.155 0 0 2.509-31.673 1.852-34-.595-2.108-2.31-5.794-5.023-5.774z" fill="#202020" paint-order="stroke fill markers"/>
  <path d="M42.255 6.572l-5.397 2.22-4.803 2.552s-1.98 1.524-4.415 3.463c-2.437 1.94-4.482 4.191-4.791 4.513-.31.323-5.146 5.319-4.755 6.173L23.7 50.167c1.355 2.532 6.848 10.12 11.365 10.073 4.516-.047 2.062.704 6.01-3.644 3.949-4.348 4.275-7.655 5.148-10.985 0 0 2.46-31.19 1.815-33.48-.644-2.292-2.623-6.475-5.782-5.558z" fill="#292929" paint-order="stroke fill markers"/>
</svg>
