<?xml version="1.0" encoding="UTF-8" standalone="no"?>
<svg
   xmlns:dc="http://purl.org/dc/elements/1.1/"
   xmlns:cc="http://creativecommons.org/ns#"
   xmlns:rdf="http://www.w3.org/1999/02/22-rdf-syntax-ns#"
   xmlns:svg="http://www.w3.org/2000/svg"
   xmlns="http://www.w3.org/2000/svg"
   xmlns:sodipodi="http://sodipodi.sourceforge.net/DTD/sodipodi-0.dtd"
   xmlns:inkscape="http://www.inkscape.org/namespaces/inkscape"
   sodipodi:docname="viiru_logo_band_opt.svg"
   inkscape:version="1.0 (1.0+r73+1)"
   id="svg1966"
   version="1.1"
   viewBox="0 0 364.68741 109.51058"
   height="109.51058mm"
   width="364.68741mm">
  <defs
     id="defs1960">
    <rect
       id="rect100"
       height="52.676952"
       width="206.50096"
       y="87.780533"
       x="184.50526" />
  </defs>
  <sodipodi:namedview
     inkscape:window-maximized="1"
     inkscape:window-y="27"
     inkscape:window-x="1992"
     inkscape:window-height="1376"
     inkscape:window-width="2488"
     showgrid="false"
     inkscape:document-rotation="0"
     inkscape:current-layer="layer1"
     inkscape:document-units="mm"
     inkscape:cy="157.47017"
     inkscape:cx="467.62411"
     inkscape:zoom="2.0000001"
     inkscape:pageshadow="2"
     inkscape:pageopacity="0.0"
     borderopacity="1.0"
     bordercolor="#666666"
     pagecolor="#ffffff"
     id="base" />
  <metadata
     id="metadata1963">
    <rdf:RDF>
      <cc:Work
         rdf:about="">
        <dc:format>image/svg+xml</dc:format>
        <dc:type
           rdf:resource="http://purl.org/dc/dcmitype/StillImage" />
        <dc:title></dc:title>
      </cc:Work>
    </rdf:RDF>
  </metadata>
  <g
     transform="translate(-28.126965,-77.06562)"
     style="display:inline"
     inkscape:label="Viiru"
     inkscape:groupmode="layer"
     id="g2012">
    <path
       sodipodi:nodetypes="scccccscccccccccccccccccccccccccccccccccccccs"
       transform="scale(0.26458333)"
       d="m 324.36466,329.11563 c -9.49375,7.8713 -18.05008,16.42495 -26.13861,27.33704 -13.6181,17.38609 -9.18247,16.78582 -19.85209,39.40305 -1.59716,10.92542 -0.76306,11.1119 -1.12003,19.2549 3.03639,14.86835 -0.35519,29.79929 -0.71096,33.64329 l -1.17188,13.59375 c 0,0 -3.46289,21.49097 -3.46289,22.55468 0,1.06368 -2.05859,17.8086 -2.05859,17.8086 -2.22604,17.3817 -3.30096,18.17248 -13.62109,29.4707 l -15.01954,15.57422 c -13.82906,18.05272 -22.12631,24.00317 -37.70898,35.66211 -8.53586,10.68605 -12.50385,17.12658 -20.11133,30.61133 -9.54699,14.03841 -9.93231,15.35056 -24.42773,31.21679 l -8.26953,9.33399 c -7.41983,9.2516 -14.92444,18.43547 -22.41602,27.6289 l -9.8418,11.20313 -12.12695,11.75781 H 414.81836 L 430,682.28516 c 12.90244,-26.58974 12.03488,-25.16673 12.39258,-51.30078 0.20033,-14.36332 0.30213,-14.27557 -2.71503,-31.38043 -2.53732,-22.0569 -2.70461,-21.81629 -2.93423,-53.91571 -3.82823,-15.55294 -3.99326,-15.4223 -6.01871,-28.89722 -0.66641,-14.0809 -0.52024,-13.98553 11.05078,-26.34375 l 18.35352,-14.52344 c 11.48352,-7.82827 13.2523,-8.61196 28.93164,-9.79688 11.41436,0.84885 19.40779,0.0187 33.01367,-1.76562 9.01323,-4.00577 9.47875,-4.02078 19.92578,-6.57227 3.73702,-2.01881 9.49525,-6.49618 9.60547,-7.22418 -0.31485,-0.68265 -56.01739,-26.28373 -84.02844,-39.42033 l 92.80784,-59.45072 c 3.35171,-8.80093 5.47938,-15.1042 4.28115,-23.59583 l -3.20105,-8.9683 -1.24451,-6.71345 0.29697,-8.50994 -2.4781,-7.61786 -3.90648,-4.34806 -3.06145,-0.66875 -44.7914,7.50894 -11.40712,3.1252 -26.7324,6.20658 c -22.58782,5.5873 -22.10801,5.94539 -45.15267,-2.07323 -22.88711,-6.15184 -22.23719,-6.28127 -43.36089,-3.01304 -20.08752,5.91888 -28.46902,8.94687 -45.44013,18.38387 -3.39015,2.53415 -6.65754,5.0819 -9.82213,7.70567 z"
       style="fill:#000000;stroke:none;stroke-width:0.999999px;stroke-linecap:butt;stroke-linejoin:miter;stroke-opacity:1"
       id="path2008" />
    <path
       style="fill:#ffffff;stroke:none;stroke-width:0.264583px;stroke-linecap:butt;stroke-linejoin:miter;stroke-opacity:1"
       d="m 114.71536,170.17937 c -10.98924,7.26555 -6.82256,6.1919 -12.96101,15.34534 l 6.94133,-0.007 c 1.05376,-1.51898 2.7557,-3.69421 3.98401,-5.99306 2.19693,-4.11166 4.13216,-7.97088 2.03567,-9.34539 z"
       id="path2010"
       sodipodi:nodetypes="cccscc" />
    <g
       sodipodi:insensitive="true"
       style="display:inline"
       inkscape:label="Test"
       id="layer2"
       inkscape:groupmode="layer">
      <path
         id="path1315"
         d="m 148.46696,110.42454 18.43449,8.3449"
         style="fill:none;stroke:#000000;stroke-width:2;stroke-linecap:round;stroke-linejoin:miter;stroke-miterlimit:4;stroke-dasharray:none;stroke-opacity:1" />
      <path
         style="fill:none;stroke:#000000;stroke-width:2;stroke-linecap:round;stroke-linejoin:miter;stroke-miterlimit:4;stroke-dasharray:none;stroke-opacity:1"
         d="m 149.02632,104.88548 20.23527,-0.0407"
         id="path1317" />
      <path
         id="path1319"
         d="M 148.83971,99.21295 166.04238,88.557623"
         style="fill:none;stroke:#000000;stroke-width:2;stroke-linecap:round;stroke-linejoin:miter;stroke-miterlimit:4;stroke-dasharray:none;stroke-opacity:1" />
    </g>
    <g
       style="display:none"
       inkscape:label="Bark"
       id="layer4"
       inkscape:groupmode="layer">
      <g
         style="display:inline"
         id="g2040"
         transform="translate(1.1416113,0.64897377)">
        <rect
           ry="0"
           transform="matrix(0.84399651,-0.53634867,0.46162425,0.88707556,0,0)"
           y="164.02788"
           x="87.117516"
           height="1.2132466"
           width="20.461386"
           id="rect2031"
           style="fill:#000000;stroke:none;stroke-width:0.25216" />
        <rect
           style="fill:#000000;stroke:none;stroke-width:0.252008;stroke-miterlimit:4;stroke-dasharray:none"
           id="rect2033"
           width="19.928041"
           height="1.2411604"
           x="155.01378"
           y="93.891884"
           transform="matrix(0.99810722,0.06149781,-0.05039086,0.99872957,0,0)"
           ry="0" />
        <rect
           ry="0"
           transform="matrix(0.91100609,0.41239291,-0.34757823,0.93765099,0,0)"
           y="37.508812"
           x="178.4287"
           height="1.2252471"
           width="20.2353"
           id="rect2035"
           style="fill:#000000;stroke:none;stroke-width:0.252" />
      </g>
    </g>
    <path
       sodipodi:nodetypes="ccccc"
       d="m 71.255953,134.32541 42.679347,-0.013 0.41836,4.86489 -44.632776,-0.54983 z"
       style="fill:#bf7268;fill-opacity:1;stroke:none;stroke-width:0.322221"
       id="rect2890" />
  </g>
  <g
     inkscape:groupmode="layer"
     id="layer1"
     inkscape:label="TextLayer">
    <text
       transform="matrix(2.5559585,0,0,2.5559585,-321.58932,-238.17661)"
       style="font-size:32.4556px;line-height:1.25;font-family:ezcar;-inkscape-font-specification:ezcar;letter-spacing:0px;word-spacing:0px;white-space:pre;shape-inside:url(#rect100);display:inline;"
       id="text98"
       xml:space="preserve"><tspan
         x="184.50586"
         y="116.49685"><tspan
           style="font-style:normal;font-variant:normal;font-weight:normal;font-stretch:normal;font-size:32.4556px;font-family:Eczar;-inkscape-font-specification:Eczar">VIIRU</tspan></tspan></text>
    <text
       id="text116"
       y="98.348396"
       x="166.42113"
       style="font-size:33.6415px;line-height:1.25;font-family:Eczar;-inkscape-font-specification:Eczar;letter-spacing:0px;word-spacing:0px;display:inline;stroke-width:0.630777"
       xml:space="preserve"><tspan
         style="font-size:33.6415px;stroke-width:0.630777"
         y="98.348396"
         x="166.42113"
         id="tspan114"
         sodipodi:role="line">Digital</tspan></text>
  </g>
</svg>
