<svg width="400mm" height="413.934" viewBox="0 0 400 109.52" xmlns="http://www.w3.org/2000/svg">
  <path d="M36.296 19.24c-3.573 2.962-6.793 6.182-9.838 10.289-5.125 6.544-3.456 6.318-7.472 14.83-.6 4.112-.287 4.183-.421 7.248 1.143 5.596-.134 11.215-.268 12.663l-.44 5.116s-1.304 8.089-1.304 8.49c0 .4-.775 6.702-.775 6.702-.838 6.542-1.243 6.84-5.127 11.092l-5.653 5.862 73.595-.778c-1.44-5.854-1.503-5.805-2.265-10.877-.25-5.3-.196-5.264 4.16-9.915l6.907-5.467c4.322-2.946 4.988-3.241 10.89-3.687 4.296.32 7.305.007 12.426-.665 3.392-1.507 3.567-1.513 7.5-2.473 1.406-.76 3.573-2.445 3.615-2.72-.119-.256-21.084-9.892-31.627-14.837l34.932-22.376c1.261-3.312 2.062-5.685 1.611-8.881l-1.205-3.375-.468-2.527.112-3.203-.933-2.867-1.47-1.637-1.153-.252-16.858 2.827-4.293 1.176-10.062 2.336c-8.502 2.103-8.321 2.238-16.995-.78-8.615-2.316-8.37-2.365-16.32-1.135-7.561 2.228-10.715 3.368-17.103 6.92a93.361 93.361 0 00-3.697 2.9z"/>
  <g transform="translate(-86.67 -103.89) scale(1.4225)">
    <rect transform="matrix(.844 -.53635 .46162 .88708 0 0)" x="87.118" y="164.03" width="20.461" height="1.213" ry="0"/>
    <rect transform="matrix(.99811 .0615 -.0504 .99873 0 0)" x="155.01" y="93.892" width="19.928" height="1.241" ry="0"/>
    <rect transform="matrix(.91101 .41239 -.34758 .93765 0 0)" x="178.43" y="37.509" width="20.235" height="1.225" ry="0"/>
  </g>
  <path d="M15.577 86.448l60.713-.018.595 6.92-63.492-.782z" fill="#bf7268"/>
  <g letter-spacing="0" word-spacing="0">
    <text transform="translate(-321.59 -238.18) scale(2.556)" font-family="ezcar" font-size="32.456" style="line-height:1.25;shape-inside:url(#rect100);white-space:pre">
      <tspan x="184.506" y="116.497"><tspan font-family="Eczar">VIIRU</tspan></tspan>
    </text>
    <text x="166.421" y="98.348" font-family="Eczar" font-size="33.642" stroke-width=".631" style="line-height:1.25">
      <tspan x="166.421" y="98.348">Digital</tspan>
    </text>
  </g>
</svg>
